<svg version="1.1" id="Layer_1" xmlns:x="ns_extend;" xmlns:i="ns_ai;" xmlns:graph="ns_graphs;" xmlns="http://www.w3.org/2000/svg" xmlns:xlink="http://www.w3.org/1999/xlink" x="0px" y="0px" viewBox="0 0 245.2 245.2" style="enable-background:new 0 0 245.2 245.2;" xml:space="preserve">
 <style type="text/css">
  .st0{fill-rule:evenodd;clip-rule:evenodd;fill:#FFFFFF;}
	.st1{fill-rule:evenodd;clip-rule:evenodd;fill:red;}
	.st2{fill-rule:evenodd;clip-rule:evenodd;fill:#1B3281;}
 </style>
<circle class="st2" cx="122.6" cy="122.6" r="122.6"/>
 <g transform="translate(0,90)">
  <path class="st0" d="M128.8,3.9c-0.2,2.5-0.3,5.1-0.3,7.6v18.7c0,2.7,0.7,7,5.3,7.8c1.6,0.3,3.3,0.4,5,0.4c1.5,0,3.1-0.1,4.6-0.3
		V11.7c0-1.2,0-2.5-0.1-3.7c-0.1-1.6-1.4-2.9-3.1-2.9h-0.3V3.9h14.6c-0.2,2.6-0.3,5.2-0.3,7.8v8.9h14.9v-8.9c0-1.2,0-2.4-0.1-3.7
		c-0.1-1.6-1.4-2.9-3-2.9h-0.3V3.9h14.6c-0.2,2.6-0.3,5.2-0.3,7.8v22.6c0,2.6,0.1,5.2,0.3,7.8h-11.5c0.2-2.6,0.3-5.2,0.3-7.8v-9.4
		h-14.9v9.4c0,2.6,0.1,5.2,0.3,7.8c-0.1,0-0.2,0-0.3,0c-5.1,0.3-10.3,0.5-15.5,0.5c-3.3,0-6.6-0.3-9.8-0.7
		c-10.2-1.5-11.4-9.8-11.4-13.5V11.7c0-1.2,0-2.5-0.1-3.7c-0.1-1.6-1.4-2.9-3-2.9h-0.3V3.9H128.8z M207,3.4c10.9,0,22,6.4,22.4,18.9
		l0,0.7c0,13-11.3,19.6-22.4,19.6c-11.1,0-22.4-6.6-22.4-19.6C184.6,10,195.9,3.4,207,3.4L207,3.4z M112.1,3.9V5L97,30.1
		c-1.5,2.6-3,5.2-4.4,7.8H106c2.6,0,5.1-0.1,7.7-0.3v4.5h-36V41l15.2-25.3c1.5-2.5,2.9-5,4.3-7.6H86.5c-1.1,0-2.1,0-3.1,0
		c-1.8,0.1-3.2,1.7-3.2,3.5h-1.3V3.9H112.1z M72.8,3.9c-0.2,2.6-0.3,5.2-0.3,7.8v22.6c0,2.6,0.1,5.2,0.3,7.8H61.3
		c0.2-2.6,0.3-5.2,0.3-7.8V11.7c0-1,0-2-0.1-2.9c0-1.9-1.5-3.5-3.4-3.5h-0.3V3.9H72.8z M17.5,0c2.1,5.2,4.3,10.4,6.6,15.6l3.1,6.9
		l3-6.9c2.2-5.2,4.4-10.4,6.5-15.6h13.1C50,5.2,50.5,10.4,51,15.6l1.1,10.9c0.5,5.2,1.2,10.4,1.9,15.6H41.5
		c-0.3-5.2-0.8-10.4-1.3-15.6L38.5,9.2c-2.4,5-4.6,10-6.8,15.1l-1,2.2c-2.3,5.2-4.4,10.4-6.5,15.6h-1.6c-2.1-5.2-4.3-10.4-6.6-15.6
		l-0.6-1.4c-2.2-5.1-4.6-10.1-7-15.1L6.7,26.5c-0.5,5.2-0.9,10.4-1.3,15.6H0c0.7-5.2,1.4-10.4,1.9-15.6L3,15.6
		C3.4,12,3.7,8.4,3.9,4.8c0-1.9-1.5-3.5-3.4-3.5V0H17.5z M207,7.6c-8.5,0-11.5,8.3-11.5,15.4c0,7.1,3,15.4,11.5,15.4
		c8.5,0,11.5-8.3,11.5-15.4C218.5,15.9,215.5,7.6,207,7.6L207,7.6z M207,7.6">
  </path>
  <path class="st1" d="M20.3,62.2c30.8-6.9,62.3-10.3,93.8-10.3c45.5,0,89.4,6.8,130.8,19.4c0.2,0.1,0.3,0.2,0.2,0.4
		c0,0.2-0.2,0.3-0.4,0.2c-43.1-7.1-86.7-11-130.4-11.7c-31.3-0.6-62.6,0.5-93.8,3.2c-0.3,0-0.6-0.2-0.7-0.5
		C19.8,62.7,20,62.3,20.3,62.2">
  </path>
 </g>
</svg>